<svg xmlns="http://www.w3.org/2000/svg" viewBox="0 0 124.56 78.12"><defs><style>.cls-1,.cls-2{fill:#0d6efd;}.cls-2{stroke:#fff;stroke-width:1.17px;}.cls-3{fill:#f6e940;}</style></defs><g id="Calque_2" data-name="Calque 2"><g id="Calque_1-2" data-name="Calque 1"><g id="Monde"><path class="cls-1" d="M34,51.76,22.33,66.12s-40.44-2-12.48-21.61S128.28,1.19,124.44,17.83c0,0,1.89-9.67-34.36-1.49-39.69,9-93.89,32.22-78.95,38.41C11.13,54.75,24.79,57.52,34,51.76Z"/><circle class="cls-1" cx="65.36" cy="39.06" r="39.06"/><path class="cls-1" d="M102.28,39.06A36.93,36.93,0,1,1,65.36,2.13,36.93,36.93,0,0,1,102.28,39.06Z"/><path class="cls-2" d="M38.35,39.06h-7.8a34.61,34.61,0,0,0,3.24,14.67q3.26-.3,6.65-.54A47.68,47.68,0,0,1,38.35,39.06Z"/><path class="cls-2" d="M40.44,53.19q-3.39.24-6.65.54A35,35,0,0,0,44.45,66.89c1-.15,2-.29,3.07-.41A38.32,38.32,0,0,1,40.44,53.19Z"/><path class="cls-2" d="M53.22,6.43a34.57,34.57,0,0,0-8.77,4.8c1,.15,2,.29,3.07.41A28.18,28.18,0,0,1,53.22,6.43Z"/><path class="cls-2" d="M47.52,66.48c-1,.12-2.06.26-3.07.41a34.57,34.57,0,0,0,8.77,4.8A28.18,28.18,0,0,1,47.52,66.48Z"/><path class="cls-2" d="M40.44,24.93q-3.39-.24-6.65-.54a34.61,34.61,0,0,0-3.24,14.67h7.8A47.68,47.68,0,0,1,40.44,24.93Z"/><path class="cls-2" d="M47.52,11.64c-1-.12-2.06-.26-3.07-.41A34.89,34.89,0,0,0,33.79,24.39q3.26.3,6.65.54A38.41,38.41,0,0,1,47.52,11.64Z"/><path class="cls-2" d="M90.27,24.93q3.39-.24,6.65-.54A34.89,34.89,0,0,0,86.26,11.23c-1,.15-2,.29-3.07.41A38.41,38.41,0,0,1,90.27,24.93Z"/><path class="cls-2" d="M77.49,71.69a34.57,34.57,0,0,0,8.77-4.8c-1-.15-2-.29-3.07-.41A28.18,28.18,0,0,1,77.49,71.69Z"/><path class="cls-2" d="M83.19,66.48c1,.12,2.06.26,3.07.41A34.89,34.89,0,0,0,96.92,53.73q-3.26-.3-6.65-.54A38.32,38.32,0,0,1,83.19,66.48Z"/><path class="cls-2" d="M92.36,39.06a47.68,47.68,0,0,1-2.09,14.13q3.39.24,6.65.54a34.61,34.61,0,0,0,3.24-14.67Z"/><path class="cls-2" d="M92.36,39.06h7.8a34.61,34.61,0,0,0-3.24-14.67q-3.26.3-6.65.54A47.68,47.68,0,0,1,92.36,39.06Z"/><path class="cls-2" d="M83.19,11.64c1-.12,2.06-.26,3.07-.41a34.57,34.57,0,0,0-8.77-4.8A28.18,28.18,0,0,1,83.19,11.64Z"/><path class="cls-2" d="M70.05,4.57a34.8,34.8,0,0,1,7.44,1.86"/><path class="cls-2" d="M53.22,6.43a34.8,34.8,0,0,1,7.44-1.86"/><path class="cls-2" d="M77.49,71.69a34.8,34.8,0,0,1-7.44,1.86"/><path class="cls-2" d="M60.66,73.55a34.8,34.8,0,0,1-7.44-1.86"/><path class="cls-2" d="M51.09,39.06H38.35a47.68,47.68,0,0,0,2.09,14.13q5.67-.4,11.66-.62A88.44,88.44,0,0,1,51.09,39.06Z"/><path class="cls-2" d="M40.44,53.19a38.32,38.32,0,0,0,7.08,13.29c2.61-.32,5.32-.57,8.09-.75A57.45,57.45,0,0,1,52.1,52.57Q46.11,52.8,40.44,53.19Z"/><path class="cls-2" d="M78.61,52.57c4,.15,7.89.35,11.66.62a47.68,47.68,0,0,0,2.09-14.13H79.62A88.44,88.44,0,0,1,78.61,52.57Z"/><path class="cls-2" d="M47.52,11.64c2.61.32,5.32.57,8.09.75a21.67,21.67,0,0,1,5-7.82,34.8,34.8,0,0,0-7.44,1.86A28.18,28.18,0,0,0,47.52,11.64Z"/><path class="cls-2" d="M90.27,24.93a38.41,38.41,0,0,0-7.08-13.29c-2.61.32-5.32.57-8.09.75a57.45,57.45,0,0,1,3.51,13.16C82.6,25.4,86.5,25.2,90.27,24.93Z"/><path class="cls-2" d="M52.1,25.55q-6-.23-11.66-.62a47.68,47.68,0,0,0-2.09,14.13H51.09A88.44,88.44,0,0,1,52.1,25.55Z"/><path class="cls-2" d="M55.61,12.39c-2.77-.18-5.48-.43-8.09-.75a38.41,38.41,0,0,0-7.08,13.29q5.67.41,11.66.62A57.45,57.45,0,0,1,55.61,12.39Z"/><path class="cls-2" d="M75.1,65.73c2.77.18,5.48.43,8.09.75a38.32,38.32,0,0,0,7.08-13.29c-3.77-.27-7.67-.47-11.66-.62A57.45,57.45,0,0,1,75.1,65.73Z"/><path class="cls-2" d="M75.1,12.39c2.77-.18,5.48-.43,8.09-.75a28.18,28.18,0,0,0-5.7-5.21,34.8,34.8,0,0,0-7.44-1.86A21.67,21.67,0,0,1,75.1,12.39Z"/><path class="cls-2" d="M55.61,65.73c-2.77.18-5.48.43-8.09.75a28.18,28.18,0,0,0,5.7,5.21,34.8,34.8,0,0,0,7.44,1.86A21.67,21.67,0,0,1,55.61,65.73Z"/><path class="cls-2" d="M78.61,25.55a88.44,88.44,0,0,1,1,13.51H92.36a47.68,47.68,0,0,0-2.09-14.13C86.5,25.2,82.6,25.4,78.61,25.55Z"/><path class="cls-2" d="M83.19,66.48c-2.61-.32-5.32-.57-8.09-.75a21.67,21.67,0,0,1-5,7.82,34.8,34.8,0,0,0,7.44-1.86A28.18,28.18,0,0,0,83.19,66.48Z"/><path class="cls-2" d="M60.66,4.57a34.67,34.67,0,0,1,4.7-.32"/><path class="cls-2" d="M65.36,4.25a34.64,34.64,0,0,1,4.69.32"/><path class="cls-2" d="M65.36,73.87a34.67,34.67,0,0,1-4.7-.32"/><path class="cls-2" d="M70.05,73.55a34.64,34.64,0,0,1-4.69.32"/><path class="cls-2" d="M51.09,39.06a88.44,88.44,0,0,0,1,13.51c4.31-.15,8.74-.24,13.26-.24V39.06Z"/><path class="cls-2" d="M65.36,52.33h0c4.51,0,8.94.09,13.25.24a88.44,88.44,0,0,0,1-13.51H65.36Z"/><path class="cls-2" d="M65.36,39.06H79.62a88.44,88.44,0,0,0-1-13.51c-4.31.15-8.74.24-13.25.24Z"/><path class="cls-2" d="M65.36,52.33h0V65.42h0c3.32,0,6.57.11,9.74.31a57.45,57.45,0,0,0,3.51-13.16C74.3,52.42,69.87,52.33,65.36,52.33Z"/><path class="cls-2" d="M65.36,25.79h0c-4.51,0-8.94-.09-13.25-.24a88.44,88.44,0,0,0-1,13.51H65.36Z"/><path class="cls-2" d="M65.36,25.79c4.51,0,8.94-.09,13.25-.24A57.45,57.45,0,0,0,75.1,12.39c-3.17.2-6.42.31-9.74.31Z"/><path class="cls-2" d="M65.36,65.42v8.45a34.64,34.64,0,0,0,4.69-.32,21.67,21.67,0,0,0,5-7.82c-3.17-.2-6.42-.31-9.74-.31Z"/><path class="cls-2" d="M65.36,52.33c-4.52,0-9,.09-13.26.24a57.45,57.45,0,0,0,3.51,13.16c3.17-.2,6.42-.31,9.75-.31Z"/><path class="cls-2" d="M55.61,65.73a21.67,21.67,0,0,0,5,7.82,34.67,34.67,0,0,0,4.7.32V65.42C62,65.42,58.78,65.53,55.61,65.73Z"/><path class="cls-2" d="M65.35,25.79h0V12.7h0c-3.32,0-6.57-.11-9.74-.31A57.45,57.45,0,0,0,52.1,25.55C56.41,25.7,60.84,25.79,65.35,25.79Z"/><path class="cls-2" d="M65.36,12.7V4.25a34.67,34.67,0,0,0-4.7.32,21.67,21.67,0,0,0-5,7.82c3.17.2,6.42.31,9.74.31Z"/><path class="cls-2" d="M75.1,12.39a21.67,21.67,0,0,0-5-7.82,34.64,34.64,0,0,0-4.69-.32V12.7C68.68,12.7,71.93,12.59,75.1,12.39Z"/><path class="cls-1" d="M39.58,51.17c.11-2.49.63-14.37.63-14.37l-3.77,5.3-6.2,8.72-14.06-.54,8.33,8.6L13.89,73.81,30.41,65l8.2,8.47s.5-11.45.58-13.17L55,51.76Zm-2.27,7.91-.42,9.81-6.11-6.31L20.2,68.25,27,58.69l-6.11-6.31,10.31.4L38,43.21,37.58,53l10.32.39Z"/><polygon class="cls-3" points="37.58 53.02 38.01 43.21 31.2 52.78 20.89 52.38 27 58.69 20.2 68.25 30.78 62.58 36.89 68.89 37.31 59.08 47.9 53.41 37.58 53.02"/></g></g></g></svg>